<svg xmlns="http://www.w3.org/2000/svg" height="24" viewBox="0 96 960 960" width="24"><path d="M420 797h120V536H420v261Zm59.825-327q27.675 0 45.925-18.075Q544 433.851 544 406.175q0-27.675-18.075-45.925Q507.851 342 480.175 342q-27.675 0-45.925 18.075Q416 378.149 416 405.825q0 27.675 18.075 45.925Q452.149 470 479.825 470Zm.175 552q-92.64 0-174.467-34.604-81.828-34.603-142.077-94.852-60.249-60.249-94.852-142.077Q34 668.64 34 576q0-92.896 34.662-174.449 34.663-81.553 95.175-141.942 60.511-60.389 142.075-94.999Q387.476 130 480 130q92.886 0 174.476 34.593T796.44 259.56q60.374 60.374 94.967 141.99Q926 483.167 926 576.083q0 92.917-34.61 174.243t-94.999 141.837q-60.389 60.512-141.942 95.174Q572.896 1022 480 1022Z"/></svg>