<svg xmlns="http://www.w3.org/2000/svg" height="20" viewBox="0 96 960 960" width="20"><path d="M272.309 436.001H602v-96q0-51-35.618-87.5-35.617-36.5-86.5-36.5-50.882 0-86.382 36.5-35.5 36.5-35.5 87.5h-77.999q0-84.922 58.455-143.46 58.454-58.538 141.77-58.538t141.545 58.698q58.228 58.698 58.228 143.3v96h7.692q38.527 0 64.417 25.891 25.891 25.89 25.891 64.417v367.382q0 38.527-25.903 64.417-25.902 25.891-64.445 25.891H272.025q-38.543 0-64.283-25.891-25.741-25.89-25.741-64.417V526.309q0-38.527 25.891-64.417 25.89-25.891 64.417-25.891Zm208.063 351.998q31.782 0 53.704-22.294 21.923-22.295 21.923-54.077 0-31.782-22.294-53.704-22.295-21.923-54.077-21.923-31.782 0-53.704 22.294-21.923 22.295-21.923 54.077 0 31.782 22.294 53.704 22.295 21.923 54.077 21.923Z"/></svg>